<svg xmlns="http://www.w3.org/2000/svg" width="30.248" height="23.522" viewBox="0 0 30.248 23.522">
  <path id="Icon_awesome-home" data-name="Icon awesome-home" d="M14.722,8.356,5.041,16.329v8.606a.84.84,0,0,0,.84.84l5.884-.015a.84.84,0,0,0,.836-.84V19.894a.84.84,0,0,1,.84-.84H16.8a.84.84,0,0,1,.84.84v5.022a.84.84,0,0,0,.84.843l5.882.016a.84.84,0,0,0,.84-.84V16.324L15.525,8.356A.64.64,0,0,0,14.722,8.356Zm15.293,5.42-4.39-3.618V2.884a.63.63,0,0,0-.63-.63H22.054a.63.63,0,0,0-.63.63V6.7l-4.7-3.868a2.52,2.52,0,0,0-3.2,0L.228,13.775a.63.63,0,0,0-.084.887l1.339,1.628a.63.63,0,0,0,.888.086L14.722,6.2a.64.64,0,0,1,.8,0L27.877,16.376a.63.63,0,0,0,.887-.084L30.1,14.664a.63.63,0,0,0-.089-.889Z" transform="translate(0.001 -2.254)" fill="#dfdfdf"/>
</svg>
