<svg xmlns="http://www.w3.org/2000/svg" width="15.583" height="17" viewBox="0 0 15.583 17">
  <g id="Icon_ionic-ios-stats" data-name="Icon ionic-ios-stats" transform="translate(-5.625 -4.5)">
    <path id="Tracé_421" data-name="Tracé 421" d="M12.729,21.5h2.125a.355.355,0,0,0,.354-.354V4.854a.355.355,0,0,0-.354-.354H12.729a.355.355,0,0,0-.354.354V21.146A.355.355,0,0,0,12.729,21.5Z" transform="translate(-2.5)" fill="#4b4b4b"/>
    <path id="Tracé_422" data-name="Tracé 422" d="M5.979,27.333H8.1a.355.355,0,0,0,.354-.354V20.6A.355.355,0,0,0,8.1,20.25H5.979a.355.355,0,0,0-.354.354v6.375A.355.355,0,0,0,5.979,27.333Z" transform="translate(0 -5.833)" fill="#4b4b4b"/>
    <path id="Tracé_423" data-name="Tracé 423" d="M19.484,25.667H21.6a.357.357,0,0,0,.359-.359v-9.2a.357.357,0,0,0-.359-.359H19.484a.357.357,0,0,0-.359.359v9.2A.357.357,0,0,0,19.484,25.667Z" transform="translate(-5 -4.167)" fill="#4b4b4b"/>
    <path id="Tracé_424" data-name="Tracé 424" d="M25.875,9.359V22.808a.357.357,0,0,0,.359.359H28.35a.357.357,0,0,0,.359-.359V9.359A.357.357,0,0,0,28.35,9H26.234A.357.357,0,0,0,25.875,9.359Z" transform="translate(-7.5 -1.667)" fill="#4b4b4b"/>
  </g>
</svg>
